<svg xmlns="http://www.w3.org/2000/svg" xmlns:xlink="http://www.w3.org/1999/xlink" width="500" zoomAndPan="magnify" viewBox="0 0 375 374.999991" height="500" preserveAspectRatio="xMidYMid meet" version="1.0"><defs><g/><clipPath id="2a37dd4bcc"><path d="M 138.875 185.714844 L 236.125 185.714844 L 236.125 201.273438 L 138.875 201.273438 Z M 138.875 185.714844 " clip-rule="nonzero"/></clipPath></defs><g clip-path="url(#2a37dd4bcc)"><path fill="#ffffff" d="M 236.125 193.375 C 236.125 194.449219 233.679688 194.835938 230.773438 194.839844 L 225.1875 201.027344 L 223.683594 201.027344 L 227.140625 194.679688 C 225.1875 194.511719 223.386719 194.230469 222.308594 193.925781 L 220 196.660156 L 218.695312 196.660156 L 220.183594 193.375 L 218.695312 190.085938 L 220 190.085938 L 222.308594 192.820312 C 223.386719 192.515625 225.1875 192.234375 227.140625 192.066406 L 223.683594 185.71875 L 225.1875 185.71875 L 230.773438 191.90625 C 233.679688 191.910156 236.125 192.296875 236.125 193.375 Z M 217.519531 192.890625 C 217.789062 192.890625 218.003906 193.109375 218.003906 193.375 C 218.003906 193.640625 217.785156 193.855469 217.519531 193.855469 L 216.554688 193.855469 C 216.289062 193.855469 216.074219 193.640625 216.074219 193.375 C 216.074219 193.109375 216.289062 192.890625 216.554688 192.890625 Z M 139.355469 193.855469 C 139.089844 193.855469 138.875 193.640625 138.875 193.375 C 138.875 193.109375 139.089844 192.890625 139.355469 192.890625 L 140.324219 192.890625 C 140.589844 192.890625 140.804688 193.109375 140.804688 193.375 C 140.804688 193.640625 140.589844 193.855469 140.324219 193.855469 Z M 143.21875 193.855469 C 142.949219 193.855469 142.734375 193.640625 142.734375 193.375 C 142.734375 193.109375 142.953125 192.890625 143.21875 192.890625 L 144.183594 192.890625 C 144.449219 192.890625 144.664062 193.109375 144.664062 193.375 C 144.664062 193.640625 144.449219 193.855469 144.183594 193.855469 Z M 147.078125 193.855469 C 146.8125 193.855469 146.59375 193.640625 146.59375 193.375 C 146.59375 193.109375 146.8125 192.890625 147.078125 192.890625 L 148.042969 192.890625 C 148.308594 192.890625 148.523438 193.109375 148.523438 193.375 C 148.523438 193.640625 148.308594 193.855469 148.042969 193.855469 Z M 150.9375 193.855469 C 150.671875 193.855469 150.457031 193.640625 150.457031 193.375 C 150.457031 193.109375 150.671875 192.890625 150.9375 192.890625 L 151.902344 192.890625 C 152.167969 192.890625 152.386719 193.109375 152.386719 193.375 C 152.386719 193.640625 152.167969 193.855469 151.902344 193.855469 Z M 154.796875 193.855469 C 154.53125 193.855469 154.316406 193.640625 154.316406 193.375 C 154.316406 193.109375 154.53125 192.890625 154.796875 192.890625 L 155.761719 192.890625 C 156.027344 192.890625 156.246094 193.109375 156.246094 193.375 C 156.246094 193.640625 156.027344 193.855469 155.761719 193.855469 Z M 158.65625 193.855469 C 158.390625 193.855469 158.175781 193.640625 158.175781 193.375 C 158.175781 193.109375 158.390625 192.890625 158.65625 192.890625 L 159.621094 192.890625 C 159.886719 192.890625 160.105469 193.109375 160.105469 193.375 C 160.105469 193.640625 159.886719 193.855469 159.621094 193.855469 Z M 162.515625 193.855469 C 162.25 193.855469 162.035156 193.640625 162.035156 193.375 C 162.035156 193.109375 162.25 192.890625 162.515625 192.890625 L 163.480469 192.890625 C 163.75 192.890625 163.964844 193.109375 163.964844 193.375 C 163.964844 193.640625 163.746094 193.855469 163.480469 193.855469 Z M 166.378906 193.855469 C 166.109375 193.855469 165.894531 193.640625 165.894531 193.375 C 165.894531 193.109375 166.109375 192.890625 166.378906 192.890625 L 167.34375 192.890625 C 167.609375 192.890625 167.824219 193.109375 167.824219 193.375 C 167.824219 193.640625 167.609375 193.855469 167.34375 193.855469 Z M 170.234375 193.855469 C 169.96875 193.855469 169.753906 193.640625 169.753906 193.375 C 169.753906 193.109375 169.96875 192.890625 170.234375 192.890625 L 171.203125 192.890625 C 171.46875 192.890625 171.683594 193.109375 171.683594 193.375 C 171.683594 193.640625 171.46875 193.855469 171.203125 193.855469 Z M 174.097656 193.855469 C 173.828125 193.855469 173.613281 193.640625 173.613281 193.375 C 173.613281 193.109375 173.832031 192.890625 174.097656 192.890625 L 175.0625 192.890625 C 175.328125 192.890625 175.542969 193.109375 175.542969 193.375 C 175.542969 193.640625 175.328125 193.855469 175.0625 193.855469 Z M 177.957031 193.855469 C 177.691406 193.855469 177.472656 193.640625 177.472656 193.375 C 177.472656 193.109375 177.691406 192.890625 177.957031 192.890625 L 178.921875 192.890625 C 179.1875 192.890625 179.402344 193.109375 179.402344 193.375 C 179.402344 193.640625 179.1875 193.855469 178.921875 193.855469 Z M 181.816406 193.855469 C 181.550781 193.855469 181.335938 193.640625 181.335938 193.375 C 181.335938 193.109375 181.550781 192.890625 181.816406 192.890625 L 182.78125 192.890625 C 183.046875 192.890625 183.265625 193.109375 183.265625 193.375 C 183.265625 193.640625 183.046875 193.855469 182.78125 193.855469 Z M 185.675781 193.855469 C 185.410156 193.855469 185.195312 193.640625 185.195312 193.375 C 185.195312 193.109375 185.410156 192.890625 185.675781 192.890625 L 186.640625 192.890625 C 186.910156 192.890625 187.125 193.109375 187.125 193.375 C 187.125 193.640625 186.90625 193.855469 186.640625 193.855469 Z M 189.535156 193.855469 C 189.269531 193.855469 189.054688 193.640625 189.054688 193.375 C 189.054688 193.109375 189.269531 192.890625 189.535156 192.890625 L 190.5 192.890625 C 190.769531 192.890625 190.984375 193.109375 190.984375 193.375 C 190.984375 193.640625 190.769531 193.855469 190.5 193.855469 Z M 193.398438 193.855469 C 193.128906 193.855469 192.914062 193.640625 192.914062 193.375 C 192.914062 193.109375 193.128906 192.890625 193.398438 192.890625 L 194.359375 192.890625 C 194.628906 192.890625 194.84375 193.109375 194.84375 193.375 C 194.84375 193.640625 194.628906 193.855469 194.359375 193.855469 Z M 197.257812 193.855469 C 196.988281 193.855469 196.773438 193.640625 196.773438 193.375 C 196.773438 193.109375 196.988281 192.890625 197.257812 192.890625 L 198.222656 192.890625 C 198.488281 192.890625 198.703125 193.109375 198.703125 193.375 C 198.703125 193.640625 198.488281 193.855469 198.222656 193.855469 Z M 201.117188 193.855469 C 200.847656 193.855469 200.632812 193.640625 200.632812 193.375 C 200.632812 193.109375 200.847656 192.890625 201.117188 192.890625 L 202.082031 192.890625 C 202.347656 192.890625 202.5625 193.109375 202.5625 193.375 C 202.5625 193.640625 202.347656 193.855469 202.082031 193.855469 Z M 204.976562 193.855469 C 204.710938 193.855469 204.492188 193.640625 204.492188 193.375 C 204.492188 193.109375 204.710938 192.890625 204.976562 192.890625 L 205.941406 192.890625 C 206.207031 192.890625 206.421875 193.109375 206.421875 193.375 C 206.421875 193.640625 206.207031 193.855469 205.941406 193.855469 Z M 208.835938 193.855469 C 208.570312 193.855469 208.351562 193.640625 208.351562 193.375 C 208.351562 193.109375 208.570312 192.890625 208.835938 192.890625 L 209.800781 192.890625 C 210.066406 192.890625 210.28125 193.109375 210.28125 193.375 C 210.28125 193.640625 210.066406 193.855469 209.800781 193.855469 Z M 212.695312 193.855469 C 212.429688 193.855469 212.214844 193.640625 212.214844 193.375 C 212.214844 193.109375 212.429688 192.890625 212.695312 192.890625 L 213.660156 192.890625 C 213.925781 192.890625 214.144531 193.109375 214.144531 193.375 C 214.144531 193.640625 213.925781 193.855469 213.660156 193.855469 Z M 212.695312 193.855469 " fill-opacity="1" fill-rule="evenodd"/></g><g fill="#ffffff" fill-opacity="1"><g transform="translate(138.873701, 186.530148)"><g><path d="M 5.078125 0 L 2.859375 -7.265625 L 2.796875 -7.265625 C 2.878906 -5.785156 2.921875 -4.800781 2.921875 -4.3125 L 2.921875 0 L 1.171875 0 L 1.171875 -9.265625 L 3.84375 -9.265625 L 6.03125 -2.171875 L 6.0625 -2.171875 L 8.390625 -9.265625 L 11.0625 -9.265625 L 11.0625 0 L 9.234375 0 L 9.234375 -4.375 C 9.234375 -4.582031 9.234375 -4.820312 9.234375 -5.09375 C 9.242188 -5.363281 9.273438 -6.082031 9.328125 -7.25 L 9.265625 -7.25 L 6.890625 0 Z M 5.078125 0 "/></g></g></g><g fill="#ffffff" fill-opacity="1"><g transform="translate(151.09873, 186.530148)"><g><path d="M 6.5 0 L 1.171875 0 L 1.171875 -9.265625 L 6.5 -9.265625 L 6.5 -7.65625 L 3.125 -7.65625 L 3.125 -5.609375 L 6.265625 -5.609375 L 6.265625 -4.015625 L 3.125 -4.015625 L 3.125 -1.625 L 6.5 -1.625 Z M 6.5 0 "/></g></g></g><g fill="#ffffff" fill-opacity="1"><g transform="translate(158.36031, 186.530148)"><g><path d="M 4.734375 0 L 2.78125 0 L 2.78125 -7.625 L 0.265625 -7.625 L 0.265625 -9.265625 L 7.25 -9.265625 L 7.25 -7.625 L 4.734375 -7.625 Z M 4.734375 0 "/></g></g></g><g fill="#ffffff" fill-opacity="1"><g transform="translate(165.868794, 186.530148)"><g><path d="M 6.828125 0 L 6.15625 -2.203125 L 2.78125 -2.203125 L 2.109375 0 L 0 0 L 3.265625 -9.296875 L 5.671875 -9.296875 L 8.953125 0 Z M 5.6875 -3.84375 C 5.070312 -5.84375 4.722656 -6.972656 4.640625 -7.234375 C 4.566406 -7.492188 4.515625 -7.703125 4.484375 -7.859375 C 4.335938 -7.316406 3.9375 -5.976562 3.28125 -3.84375 Z M 5.6875 -3.84375 "/></g></g></g><g fill="#ffffff" fill-opacity="1"><g transform="translate(174.814401, 186.530148)"><g><path d="M 3.125 -5.140625 L 3.765625 -5.140625 C 4.378906 -5.140625 4.832031 -5.242188 5.125 -5.453125 C 5.425781 -5.660156 5.578125 -5.988281 5.578125 -6.4375 C 5.578125 -6.875 5.425781 -7.1875 5.125 -7.375 C 4.820312 -7.5625 4.351562 -7.65625 3.71875 -7.65625 L 3.125 -7.65625 Z M 3.125 -3.546875 L 3.125 0 L 1.171875 0 L 1.171875 -9.265625 L 3.859375 -9.265625 C 5.117188 -9.265625 6.050781 -9.035156 6.65625 -8.578125 C 7.257812 -8.117188 7.5625 -7.421875 7.5625 -6.484375 C 7.5625 -5.941406 7.410156 -5.457031 7.109375 -5.03125 C 6.804688 -4.601562 6.382812 -4.269531 5.84375 -4.03125 C 7.226562 -1.945312 8.132812 -0.601562 8.5625 0 L 6.390625 0 L 4.171875 -3.546875 Z M 3.125 -3.546875 "/></g></g></g><g fill="#ffffff" fill-opacity="1"><g transform="translate(183.373819, 186.530148)"><g><path d="M 6.453125 -9.265625 L 8.421875 -9.265625 L 5.28125 0 L 3.140625 0 L 0 -9.265625 L 1.984375 -9.265625 L 3.71875 -3.75 C 3.820312 -3.425781 3.921875 -3.046875 4.015625 -2.609375 C 4.117188 -2.179688 4.1875 -1.878906 4.21875 -1.703125 C 4.257812 -2.097656 4.414062 -2.78125 4.6875 -3.75 Z M 6.453125 -9.265625 "/></g></g></g><g fill="#ffffff" fill-opacity="1"><g transform="translate(191.80029, 186.530148)"><g><path d="M 1.171875 0 L 1.171875 -9.265625 L 3.125 -9.265625 L 3.125 0 Z M 1.171875 0 "/></g></g></g><g fill="#ffffff" fill-opacity="1"><g transform="translate(196.092661, 186.530148)"><g><path d="M 6.5 0 L 1.171875 0 L 1.171875 -9.265625 L 6.5 -9.265625 L 6.5 -7.65625 L 3.125 -7.65625 L 3.125 -5.609375 L 6.265625 -5.609375 L 6.265625 -4.015625 L 3.125 -4.015625 L 3.125 -1.625 L 6.5 -1.625 Z M 6.5 0 "/></g></g></g><g fill="#ffffff" fill-opacity="1"><g transform="translate(203.354237, 186.530148)"><g><path d="M 10.1875 0 L 7.953125 0 L 6.6875 -4.859375 C 6.644531 -5.035156 6.566406 -5.394531 6.453125 -5.9375 C 6.335938 -6.476562 6.273438 -6.84375 6.265625 -7.03125 C 6.234375 -6.800781 6.164062 -6.429688 6.0625 -5.921875 C 5.96875 -5.421875 5.894531 -5.0625 5.84375 -4.84375 L 4.59375 0 L 2.359375 0 L 0 -9.265625 L 1.9375 -9.265625 L 3.109375 -4.203125 C 3.316406 -3.273438 3.46875 -2.46875 3.5625 -1.78125 C 3.59375 -2.019531 3.648438 -2.390625 3.734375 -2.890625 C 3.828125 -3.398438 3.914062 -3.796875 4 -4.078125 L 5.34375 -9.265625 L 7.203125 -9.265625 L 8.546875 -4.078125 C 8.609375 -3.835938 8.679688 -3.476562 8.765625 -3 C 8.859375 -2.53125 8.925781 -2.125 8.96875 -1.78125 C 9.007812 -2.101562 9.078125 -2.507812 9.171875 -3 C 9.265625 -3.5 9.347656 -3.898438 9.421875 -4.203125 L 10.609375 -9.265625 L 12.53125 -9.265625 Z M 10.1875 0 "/></g></g></g></svg>